<svg xmlns="http://www.w3.org/2000/svg" viewBox="0 0 32 32"><path d="M25.067 32H6.934A6.919 6.919 0 010 25.067V6.934A6.92 6.92 0 016.934 0h18.133A6.919 6.919 0 0132 6.934v18.133A6.919 6.919 0 0125.067 32zM16 5.6a10.4 10.4 0 100 20.8 10.191 10.191 0 003.227-.507l.613-.213a.429.429 0 00.267-.534l-.587-1.84a.426.426 0 00-.394-.29.444.444 0 00-.139.023l-.614.214a7.273 7.273 0 01-2.373.374A7.627 7.627 0 1123.627 16a8.023 8.023 0 01-.48 2.667c-.238.662-.777 1.2-1.2 1.2A1.068 1.068 0 0120.88 18.8v-7.333a.422.422 0 00-.426-.427h-1.92a.454.454 0 00-.426.4v.16l-.134-.08a5.064 5.064 0 10-2.4 9.521 5 5 0 002.72-.8l.106-.053.054.106a3.861 3.861 0 001.41 1.69 3.815 3.815 0 002.11.63 4.252 4.252 0 003.813-3.066A11 11 0 0026.4 16 10.412 10.412 0 0016 5.6zm-.426 12.907A2.507 2.507 0 1118.08 16a2.51 2.51 0 01-2.506 2.507z" fill="#3f5d45"/></svg>