<svg xmlns="http://www.w3.org/2000/svg" viewBox="0 0 1000 1000"><path d="M305.372 960.708a498.313 498.313 0 01-158.928-107.157A498.328 498.328 0 0139.291 694.619 496.9 496.9 0 010 499.996a496.883 496.883 0 0139.291-194.622 498.343 498.343 0 01107.153-158.93A498.36 498.36 0 01305.372 39.293 496.863 496.863 0 01499.993.001a496.855 496.855 0 01194.624 39.293 498.337 498.337 0 01158.934 107.151 498.366 498.366 0 01107.157 158.93A496.865 496.865 0 011000 499.996a496.874 496.874 0 01-39.292 194.623A498.373 498.373 0 01853.55 853.551a498.29 498.29 0 01-158.934 107.157 496.864 496.864 0 01-194.623 39.293 496.865 496.865 0 01-194.621-39.293zm4.868-909.9a485.883 485.883 0 00-154.956 104.476A485.869 485.869 0 0050.81 310.24 484.435 484.435 0 0012.5 499.994a484.465 484.465 0 0038.31 189.762 485.878 485.878 0 00104.474 154.958A485.9 485.9 0 00310.24 949.192a484.473 484.473 0 00189.754 38.31 484.5 484.5 0 00189.762-38.31 485.879 485.879 0 00154.959-104.478 485.883 485.883 0 00104.476-154.958 484.465 484.465 0 0038.31-189.762 484.435 484.435 0 00-38.31-189.754 485.875 485.875 0 00-104.476-154.956A485.855 485.855 0 00689.756 50.808a484.467 484.467 0 00-189.762-38.31 484.434 484.434 0 00-189.755 38.311zm14.6 863.829a448.469 448.469 0 01-143.04-96.436 448.486 448.486 0 01-96.437-143.037A447.211 447.211 0 0150 500.001a447.21 447.21 0 0135.363-175.163A448.486 448.486 0 01181.8 181.801a448.469 448.469 0 01143.039-96.437A447.171 447.171 0 01500 50.001a447.173 447.173 0 01175.164 35.363A448.469 448.469 0 01818.2 181.801a448.478 448.478 0 0196.437 143.037A447.209 447.209 0 01950 500.001a447.209 447.209 0 01-35.361 175.163A448.478 448.478 0 01818.2 818.201a448.469 448.469 0 01-143.039 96.437A447.208 447.208 0 01500 950.001a447.206 447.206 0 01-175.163-35.363zm-26.192-156.375c22.61 8.527 50.75 19.139 98.53 19.139 82.943 0 134.739-27.754 163.586-51.035 37.213-30.035 58.555-71.284 58.555-113.169 0-53.444-23-84.788-60.12-118.034l-65.25-58.658c-28.189-25.377-55.711-54.036-55.711-100.441 0-53.1 46.125-90.18 112.163-90.18 26.2 0 53.98 8.5 74.323 22.73 17.6 12.317 38.583 35.034 38.583 73.323a143.4 143.4 0 01-6.041 41.253l-.553 1.993h8.8l50.581-140.017-11-2.206c-5 11.433-11.421 19.057-26.392 19.057-13.8 0-27.374-4.63-43.094-9.99-21.428-7.309-48.1-16.4-85.2-16.4-50.9 0-98.582 14.614-134.249 41.15-35.872 26.689-55.629 62.584-55.629 101.073 0 56.234 29.018 94.017 72.585 133.446l52.043 47.634c30.832 28.478 43.987 55.671 43.987 90.921 0 34.712-12.324 64.023-35.642 84.761-23.93 21.283-58.506 32.532-99.987 32.532-28.8 0-59.835-9.556-83.027-25.563-19.317-13.33-42.342-37.266-42.342-75.6 0-15.988 4.356-28.448 9.4-42.875l.137-.392h-9.539L216.1 768.601l10.259 2.205c2.326-13.138 14.574-23.445 27.854-23.445 15.537.005 28.929 5.054 44.432 10.903zm415.941-263.3c-4.3 10.948-5.653 12.7-18.625 29.509l-2.664 3.453a246.88 246.88 0 01-3.6 4.714c-6.341 8.166-13.524 17.42-13.524 28.271 0 13.5 11.047 19.643 21.308 19.643 13.312 0 22.974-9.661 22.974-22.972 0-3.662-.645-8-2.2-18.487l-.726-4.913c-3.227-24.111-2.955-26.153-1.441-37.481l.181-1.356c10.484 13.7 15.583 27.641 19.681 38.844 6.117 16.728 10.535 28.815 27.931 28.815 11.984 0 21.736-10.488 21.736-23.379 0-9.531-6.466-16.844-19.217-21.734-9.3-3.519-33.994-12.866-48.87-23.8a121.307 121.307 0 0113.845-.77c9.454 0 18.833.983 30.007 2.457 1.6.213 3.19.451 4.782.688a95.061 95.061 0 0013.6 1.382c14.2 0 23.377-8.524 23.377-21.713 0-12.237-10.146-22.972-21.713-22.972-10.5 0-20.415 8.721-30.914 17.954-9.774 8.617-21.39 17.886-33.414 21.308 4.565-11.579 5.348-12.811 20.9-32.986 1.135-1.538 2.346-3.1 3.579-4.687 6.36-8.191 13.543-17.447 13.543-28.32 0-13.48-11.045-19.62-21.306-19.62-13.311 0-22.972 9.661-22.972 22.972 0 3.641.643 7.978 2.2 18.452l.728 4.926c3.286 24.734 3.349 26.187 1.666 38.835-10.431-13.619-15.6-27.5-19.761-38.654-6.274-16.838-10.807-29-28.278-29-11.971 0-21.711 10.5-21.711 23.4 0 9.537 6.465 16.842 19.215 21.713 15.857 6.012 35.745 14.153 48.87 23.8a122.509 122.509 0 01-13.938.774c-9.482 0-18.815-.975-29.914-2.439-1.66-.22-3.318-.47-4.966-.719a91.343 91.343 0 00-13.416-1.373c-14.2 0-23.379 8.522-23.379 21.711 0 12.239 10.146 22.974 21.713 22.974 10.472 0 20.392-8.723 30.893-17.956 8.395-7.381 21.031-17.62 33.791-21.293l.049-.015z" fill="#3f5d45"/></svg>